<?xml version="1.0" encoding="UTF-8" standalone="no"?>
<svg
   xmlns:dc="http://purl.org/dc/elements/1.1/"
   xmlns:cc="http://creativecommons.org/ns#"
   xmlns:rdf="http://www.w3.org/1999/02/22-rdf-syntax-ns#"
   xmlns:svg="http://www.w3.org/2000/svg"
   xmlns="http://www.w3.org/2000/svg"
   xmlns:sodipodi="http://sodipodi.sourceforge.net/DTD/sodipodi-0.dtd"
   xmlns:inkscape="http://www.inkscape.org/namespaces/inkscape"
   width="256px"
   height="56px"
   viewBox="0 0 256 56"
   version="1.1"
   id="svg8"
   sodipodi:docname="speccy.svg"
   inkscape:version="0.92.5 (2060ec1f9f, 2020-04-08)">
  <metadata
     id="metadata10">
    <rdf:RDF>
      <cc:Work
         rdf:about="">
        <dc:format>image/svg+xml</dc:format>
        <dc:type
           rdf:resource="http://purl.org/dc/dcmitype/StillImage" />
      </cc:Work>
    </rdf:RDF>
  </metadata>
  <defs
     id="defs8" />
  <sodipodi:namedview
     pagecolor="#ffffff"
     bordercolor="#666666"
     borderopacity="1"
     objecttolerance="10"
     gridtolerance="10"
     guidetolerance="10"
     inkscape:pageopacity="0"
     inkscape:pageshadow="2"
     inkscape:window-width="1322"
     inkscape:window-height="735"
     id="namedview6"
     showgrid="false"
     inkscape:zoom="3.0825436"
     inkscape:cx="105.02765"
     inkscape:cy="0.87530502"
     inkscape:window-x="30"
     inkscape:window-y="0"
     inkscape:window-maximized="0"
     inkscape:current-layer="layer1" />
  <g
     inkscape:label="Layer 1"
     inkscape:groupmode="layer"
     id="layer1">
    <line
       x1="14.339057"
       y1="29.231674"
       x2="20.568455"
       y2="36.979591"
       style="fill:#0000fc;fill-opacity:1;stroke:#000000;stroke-width:0.13894579;stroke-opacity:1"
       id="line2" />
    <line
       x1="20.477562"
       y1="36.893703"
       x2="90.644073"
       y2="42.702026"
       style="fill:#0000fc;fill-opacity:1;stroke:#000000;stroke-width:0.40375692;stroke-opacity:1"
       id="line2-3" />
    <path
       style="fill:#000000;stroke:#000000;stroke-width:1.19593167px;stroke-linecap:butt;stroke-linejoin:miter;stroke-opacity:1;fill-opacity:1"
       d="m 28.547853,50.070718 3.892888,-31.411371 v 0 L 38.280075,7.987703 v 0 l 3.892889,10.20766 v 0 l 3.568481,-0.463984 v 0 l 1.946445,4.639845 v 0 l -2.59526,8.351721 v 0 l 7.136963,7.423753 v 0 l -3.244074,6.959768 v 0 l 7.785778,6.495783 v 0 z"
       id="path4562"
       inkscape:connector-curvature="0"
       sodipodi:nodetypes="ccccccccccccccccccc" />
    <path
       style="fill:#000000;fill-opacity:1;stroke:#000000;stroke-width:1.11751878px;stroke-linecap:butt;stroke-linejoin:miter;stroke-opacity:1"
       d="m 92.180045,44.970147 2.430823,-19.788852 v 0 L 92.180045,11.231776 v 0 L 82.861928,2.1483695 v 0 l -9.723255,3.8928889 v 0 L 71.518137,23.883665 v 0 L 55.717849,37.833184 v 0 l -4.861633,9.732223 v 0 z"
       id="path4564"
       inkscape:connector-curvature="0" />
    <path
       style="fill:none;stroke:#000000;stroke-width:1.28148746px;stroke-linecap:butt;stroke-linejoin:miter;stroke-opacity:1"
       d="m 18.792912,6.1186235 c 9.45325,30.9883815 9.45325,30.9883815 9.45325,30.9883815"
       id="path4574"
       inkscape:connector-curvature="0" />
    <path
       style="fill:none;stroke:#000000;stroke-width:0.9743681px;stroke-linecap:butt;stroke-linejoin:miter;stroke-opacity:1"
       d="M 93.924823,34.122075 122.84568,15.811911 v 0"
       id="path4576"
       inkscape:connector-curvature="0" />
    <path
       style="fill:none;stroke:#000000;stroke-width:0.99263895px;stroke-linecap:butt;stroke-linejoin:miter;stroke-opacity:1"
       d="M 14.935404,49.573084 0.6361509,56.91199"
       id="path4578"
       inkscape:connector-curvature="0" />
    <path
       style="fill:none;stroke:#000000;stroke-width:0.75741827px;stroke-linecap:butt;stroke-linejoin:miter;stroke-opacity:1"
       d="M 14.935404,49.573084 C 48.985519,45.106466 48.985519,45.106466 48.985519,45.106466"
       id="path4580"
       inkscape:connector-curvature="0" />
    <path
       style="fill:none;stroke:#000000;stroke-width:1.06588411px;stroke-linecap:butt;stroke-linejoin:miter;stroke-opacity:1"
       d="M 14.560445,28.516355 C 8.286097,32.360254 8.286097,32.360254 8.286097,32.360254 L 8.8779951,10.140095 v 0 L 1.1833184,2.868044 h 0.2959491"
       id="path4582"
       inkscape:connector-curvature="0" />
    <path
       style="fill:none;stroke:#000000;stroke-width:1px;stroke-linecap:butt;stroke-linejoin:miter;stroke-opacity:1"
       d="M 20.477562,36.893703 C 9.0834075,43.348111 9.0834075,43.348111 9.0834075,43.348111 L 0.97322224,34.913518 v 0 L 0,44.645741"
       id="path4584"
       inkscape:connector-curvature="0" />
    <path
       style="fill:none;stroke:#000000;stroke-width:1px;stroke-linecap:butt;stroke-linejoin:miter;stroke-opacity:1"
       d="m 8.286097,32.360254 -4.3932081,0.931227 v 0 l -4.21729631,-6.812556"
       id="path4586"
       inkscape:connector-curvature="0" />
    <path
       style="fill:none;stroke:#000000;stroke-width:0.71944565px;stroke-linecap:butt;stroke-linejoin:miter;stroke-opacity:1"
       d="m 103.01585,56.132828 c 0,0 0,0 -25.114316,-3.253475 5.4894,-3.679304 5.931134,-3.679304 5.931134,-3.679304 l 4.483173,-4.180517 v 0"
       id="path4590"
       inkscape:connector-curvature="0" />
    <path
       style="fill:none;stroke:#000000;stroke-width:1px;stroke-linecap:butt;stroke-linejoin:miter;stroke-opacity:1"
       d="m 28.547852,44.321333 c 0,0 0,0 -12.976296,-3.568481 C 9.7322224,52.107111 9.7322224,52.107111 9.7322224,52.107111"
       id="path4594"
       inkscape:connector-curvature="0" />
    <path
       style="fill:none;stroke:#000000;stroke-width:1px;stroke-linecap:butt;stroke-linejoin:miter;stroke-opacity:1"
       d="M 20.477562,36.893703 C 20.11326,23.883666 20.11326,23.883666 20.11326,23.883666 l 8.174451,13.243211"
       id="path4596"
       inkscape:connector-curvature="0" />
    <path
       style="fill:none;stroke:#000000;stroke-width:1px;stroke-linecap:butt;stroke-linejoin:miter;stroke-opacity:1"
       d="M 0.97322224,34.913518 C 3.8928889,33.291481 3.8928889,33.291481 3.8928889,33.291481"
       id="path4598"
       inkscape:connector-curvature="0" />
    <path
       style="fill:none;stroke:#000000;stroke-width:1px;stroke-linecap:butt;stroke-linejoin:miter;stroke-opacity:1"
       d="M 14.560445,28.516355 C 20.11326,23.883666 20.11326,23.883666 20.11326,23.883666"
       id="path4600"
       inkscape:connector-curvature="0" />
    <path
       style="fill:none;stroke:#000000;stroke-width:1px;stroke-linecap:butt;stroke-linejoin:miter;stroke-opacity:1"
       d="m 8.8779951,10.140095 5.6824499,18.37626"
       id="path4602"
       inkscape:connector-curvature="0" />
    <path
       style="fill:none;stroke:#000000;stroke-width:1px;stroke-linecap:butt;stroke-linejoin:miter;stroke-opacity:1"
       d="m 9.0834075,43.348111 0.6488149,8.759"
       id="path4604"
       inkscape:connector-curvature="0" />
    <path
       style="fill:none;stroke:#000000;stroke-width:1px;stroke-linecap:butt;stroke-linejoin:miter;stroke-opacity:1"
       d="m 28.287711,37.126877 -6.876822,4.599197"
       id="path4606"
       inkscape:connector-curvature="0" />
    <path
       style="fill:none;stroke:#000000;stroke-width:1px;stroke-linecap:butt;stroke-linejoin:miter;stroke-opacity:1"
       d="M 18.792912,6.1186235 C 4.2172964,5.3924437 4.2172964,5.3924437 4.2172964,5.3924437"
       id="path4608"
       inkscape:connector-curvature="0" />
    <path
       style="fill:none;stroke:#000000;stroke-width:1px;stroke-linecap:butt;stroke-linejoin:miter;stroke-opacity:1"
       d="m 106.08122,26.803333 c -3.89289,-14.922741 -3.89289,-14.922741 -3.89289,-14.922741 l 10.05663,-1.622037 2.27086,-10.05662994 2.59526,-0.32440741"
       id="path4610"
       inkscape:connector-curvature="0" />
    <path
       style="fill:none;stroke:#000000;stroke-width:0.84083718px;stroke-linecap:butt;stroke-linejoin:miter;stroke-opacity:1"
       d="m 123.56903,30.146994 c 14.31291,11.294538 14.31291,11.294538 14.31291,11.294538 l -22.71731,14.882875"
       id="path4612"
       inkscape:connector-curvature="0" />
    <path
       style="fill:none;stroke:#000000;stroke-width:0.65823436px;stroke-linecap:butt;stroke-linejoin:miter;stroke-opacity:1"
       d="m 109.81848,24.018234 1.82857,-13.948929"
       id="path4614"
       inkscape:connector-curvature="0" />
    <path
       style="fill:none;stroke:#000000;stroke-width:1.46445429px;stroke-linecap:butt;stroke-linejoin:miter;stroke-opacity:1"
       d="M 122.84568,26.803952 140.68244,-0.12248235 139.44729,56.341474"
       id="path4616"
       inkscape:connector-curvature="0" />
    <path
       style="fill:none;stroke:#000000;stroke-width:1.02451015px;stroke-linecap:butt;stroke-linejoin:miter;stroke-opacity:1"
       d="M 124.63104,12.577207 117.27216,-0.45625996"
       id="path4618"
       inkscape:connector-curvature="0" />
    <path
       style="fill:none;stroke:#000000;stroke-width:0.92656147px;stroke-linecap:butt;stroke-linejoin:miter;stroke-opacity:1"
       d="m 124.01503,29.798195 -3.20719,19.352484"
       id="path4620"
       inkscape:connector-curvature="0" />
    <path
       style="fill:none;stroke:#000000;stroke-width:1px;stroke-linecap:butt;stroke-linejoin:miter;stroke-opacity:1"
       d="m 120.67956,49.187444 c -5.51493,-17.842407 -5.51493,-17.842407 -5.51493,-17.842407 l -8.43459,0.324407 -4.2173,3.568482 -0.97322,5.839333 -10.895447,1.624767"
       id="path4622"
       inkscape:connector-curvature="0" />
    <path
       style="fill:none;stroke:#000000;stroke-width:1px;stroke-linecap:butt;stroke-linejoin:miter;stroke-opacity:1"
       d="m 101.53952,41.077259 1.47633,15.055569"
       id="path4624"
       inkscape:connector-curvature="0" />
    <path
       style="fill:none;stroke:#000000;stroke-width:1px;stroke-linecap:butt;stroke-linejoin:miter;stroke-opacity:1"
       d="m 124.63104,12.577207 8.70041,-1.994245"
       id="path4626"
       inkscape:connector-curvature="0" />
    <path
       style="fill:none;stroke:#000000;stroke-width:1px;stroke-linecap:butt;stroke-linejoin:miter;stroke-opacity:1"
       d="M 122.84568,15.811911 V 26.803952"
       id="path4628"
       inkscape:connector-curvature="0" />
    <path
       style="fill:none;stroke:#000000;stroke-width:1px;stroke-linecap:butt;stroke-linejoin:miter;stroke-opacity:1"
       d="m 122.84568,26.803952 -4.43697,13.624492"
       id="path4632"
       inkscape:connector-curvature="0" />
    <path
       style="fill:none;stroke:#000000;stroke-width:1px;stroke-linecap:butt;stroke-linejoin:miter;stroke-opacity:1"
       d="m 124.01503,29.798195 15.15575,-2.346047"
       id="path4634"
       inkscape:connector-curvature="0" />
    <path
       style="fill:none;stroke:#000000;stroke-width:1px;stroke-linecap:butt;stroke-linejoin:miter;stroke-opacity:1"
       d="m 120.80784,49.150679 -0.12828,0.03677"
       id="path4636"
       inkscape:connector-curvature="0" />
    <path
       style="fill:none;stroke:#000000;stroke-width:0.82194537px;stroke-linecap:butt;stroke-linejoin:miter;stroke-opacity:1"
       d="m 120.67956,49.025241 v 3e-6"
       id="path4638"
       inkscape:connector-curvature="0" />
  </g>
</svg>
